<svg width="16" height="20" viewBox="0 0 16 20" fill="none" xmlns="http://www.w3.org/2000/svg">
<path d="M4.00008 16H12.0001V14H4.00008V16ZM4.00008 12H12.0001V10H4.00008V12ZM2.00008 20C1.45008 20 0.979243 19.8042 0.587576 19.4125C0.19591 19.0208 7.62939e-05 18.55 7.62939e-05 18V2C7.62939e-05 1.45 0.19591 0.979167 0.587576 0.5875C0.979243 0.195833 1.45008 0 2.00008 0H10.0001L16.0001 6V18C16.0001 18.55 15.8042 19.0208 15.4126 19.4125C15.0209 19.8042 14.5501 20 14.0001 20H2.00008ZM9.00008 7H14.0001L9.00008 2V7Z" fill="#94A3B8"/>
</svg>
