<svg width="12" height="12" viewBox="0 0 12 12" fill="none" xmlns="http://www.w3.org/2000/svg">
<path d="M0.45 11.3505V9.76715H1.73333L1.68333 9.70049C1.09444 9.12271 0.666667 8.48938 0.4 7.80049C0.133333 7.1116 0 6.41715 0 5.71715C0 4.30604 0.455556 3.06715 1.36667 2.00049C2.27778 0.933822 3.43333 0.267155 4.83333 0.000488281V2.16716C4.02222 2.35604 3.36389 2.7866 2.85833 3.45882C2.35278 4.13104 2.1 4.88382 2.1 5.71715C2.1 6.15049 2.18611 6.57827 2.35833 7.00049C2.53056 7.42271 2.79444 7.82271 3.15 8.20049L3.18333 8.23382V7.01716H4.76667V11.3505H0.45ZM6.66667 11.3672V9.20049C7.47778 9.0116 8.13611 8.58104 8.64167 7.90882C9.14722 7.2366 9.4 6.48382 9.4 5.65049C9.4 5.21715 9.31389 4.78938 9.14167 4.36716C8.96944 3.94493 8.70556 3.54493 8.35 3.16716L8.31667 3.13382V4.35049H6.73333V0.0171549H11.05V1.60049H9.76667L9.81667 1.66715C10.3944 2.25604 10.8194 2.89215 11.0917 3.57549C11.3639 4.25882 11.5 4.95049 11.5 5.65049C11.5 7.0616 11.0444 8.30049 10.1333 9.36716C9.22222 10.4338 8.06667 11.1005 6.66667 11.3672Z" fill="white"/>
</svg>
