<svg width="16" height="16" viewBox="0 0 16 16" fill="none" xmlns="http://www.w3.org/2000/svg">
<path d="M7.99994 8C6.89994 8 5.95827 7.60833 5.17494 6.825C4.39161 6.04167 3.99994 5.1 3.99994 4C3.99994 2.9 4.39161 1.95833 5.17494 1.175C5.95827 0.391667 6.89994 0 7.99994 0C9.09994 0 10.0416 0.391667 10.8249 1.175C11.6083 1.95833 11.9999 2.9 11.9999 4C11.9999 5.1 11.6083 6.04167 10.8249 6.825C10.0416 7.60833 9.09994 8 7.99994 8ZM-6.10352e-05 16V13.2C-6.10352e-05 12.6333 0.145772 12.1125 0.437439 11.6375C0.729106 11.1625 1.11661 10.8 1.59994 10.55C2.63327 10.0333 3.68327 9.64583 4.74994 9.3875C5.81661 9.12917 6.89994 9 7.99994 9C9.09994 9 10.1833 9.12917 11.2499 9.3875C12.3166 9.64583 13.3666 10.0333 14.3999 10.55C14.8833 10.8 15.2708 11.1625 15.5624 11.6375C15.8541 12.1125 15.9999 12.6333 15.9999 13.2V16H-6.10352e-05ZM1.99994 14H13.9999V13.2C13.9999 13.0167 13.9541 12.85 13.8624 12.7C13.7708 12.55 13.6499 12.4333 13.4999 12.35C12.5999 11.9 11.6916 11.5625 10.7749 11.3375C9.85827 11.1125 8.93327 11 7.99994 11C7.06661 11 6.14161 11.1125 5.22494 11.3375C4.30827 11.5625 3.39994 11.9 2.49994 12.35C2.34994 12.4333 2.22911 12.55 2.13744 12.7C2.04577 12.85 1.99994 13.0167 1.99994 13.2V14ZM7.99994 6C8.54994 6 9.02077 5.80417 9.41244 5.4125C9.80411 5.02083 9.99994 4.55 9.99994 4C9.99994 3.45 9.80411 2.97917 9.41244 2.5875C9.02077 2.19583 8.54994 2 7.99994 2C7.44994 2 6.97911 2.19583 6.58744 2.5875C6.19577 2.97917 5.99994 3.45 5.99994 4C5.99994 4.55 6.19577 5.02083 6.58744 5.4125C6.97911 5.80417 7.44994 6 7.99994 6Z" fill="#94A3B8"/>
</svg>
