<svg width="14" height="14" viewBox="0 0 14 14" fill="none" xmlns="http://www.w3.org/2000/svg">
<path d="M8.86675 9.8L9.80008 8.86667L7.33341 6.4V3.33333H6.00008V6.93333L8.86675 9.8ZM6.66675 13.3333C5.74452 13.3333 4.87786 13.1583 4.06675 12.8083C3.25564 12.4583 2.55008 11.9833 1.95008 11.3833C1.35008 10.7833 0.87508 10.0778 0.52508 9.26667C0.17508 8.45555 8.01086e-05 7.58889 8.01086e-05 6.66667C8.01086e-05 5.74444 0.17508 4.87778 0.52508 4.06667C0.87508 3.25556 1.35008 2.55 1.95008 1.95C2.55008 1.35 3.25564 0.875 4.06675 0.525C4.87786 0.175 5.74452 0 6.66675 0C7.58897 0 8.45564 0.175 9.26675 0.525C10.0779 0.875 10.7834 1.35 11.3834 1.95C11.9834 2.55 12.4584 3.25556 12.8084 4.06667C13.1584 4.87778 13.3334 5.74444 13.3334 6.66667C13.3334 7.58889 13.1584 8.45555 12.8084 9.26667C12.4584 10.0778 11.9834 10.7833 11.3834 11.3833C10.7834 11.9833 10.0779 12.4583 9.26675 12.8083C8.45564 13.1583 7.58897 13.3333 6.66675 13.3333ZM6.66675 12C8.14452 12 9.40286 11.4806 10.4417 10.4417C11.4806 9.40278 12.0001 8.14444 12.0001 6.66667C12.0001 5.18889 11.4806 3.93056 10.4417 2.89167C9.40286 1.85278 8.14452 1.33333 6.66675 1.33333C5.18897 1.33333 3.93064 1.85278 2.89175 2.89167C1.85286 3.93056 1.33341 5.18889 1.33341 6.66667C1.33341 8.14444 1.85286 9.40278 2.89175 10.4417C3.93064 11.4806 5.18897 12 6.66675 12Z" fill="#94A3B8"/>
</svg>
