<svg width="22" height="20" viewBox="0 0 22 20" fill="none" xmlns="http://www.w3.org/2000/svg">
<path d="M16.6751 7L15.5751 4.6L13.1751 3.5L15.5751 2.4L16.6751 0L17.7751 2.4L20.1751 3.5L17.7751 4.6L16.6751 7ZM18.6751 14L17.8751 12.3L16.1751 11.5L17.8751 10.7L18.6751 9L19.4751 10.7L21.1751 11.5L19.4751 12.3L18.6751 14ZM5.67511 20L5.37511 17.65C5.25844 17.6 5.13344 17.5333 5.00011 17.45C4.86677 17.3667 4.75844 17.2833 4.67511 17.2L2.47511 18.15L0.000106812 13.8L1.87511 12.4C1.87511 12.2667 1.87511 12.1333 1.87511 12C1.87511 11.8667 1.87511 11.7333 1.87511 11.6L0.000106812 10.2L2.47511 5.85L4.67511 6.8C4.75844 6.71667 4.86677 6.63333 5.00011 6.55C5.13344 6.46667 5.25844 6.4 5.37511 6.35L5.67511 4H10.6751L10.9751 6.35C11.0918 6.4 11.2168 6.46667 11.3501 6.55C11.4834 6.63333 11.5918 6.71667 11.6751 6.8L13.8751 5.85L16.3501 10.2L14.4751 11.6C14.4751 11.7333 14.4751 11.8667 14.4751 12C14.4751 12.1333 14.4751 12.2667 14.4751 12.4L16.3501 13.8L13.8751 18.15L11.6751 17.2C11.5918 17.2833 11.4834 17.3667 11.3501 17.45C11.2168 17.5333 11.0918 17.6 10.9751 17.65L10.6751 20H5.67511ZM8.17511 15C9.00844 15 9.71677 14.7083 10.3001 14.125C10.8834 13.5417 11.1751 12.8333 11.1751 12C11.1751 11.1667 10.8834 10.4583 10.3001 9.875C9.71677 9.29167 9.00844 9 8.17511 9C7.34177 9 6.63344 9.29167 6.05011 9.875C5.46677 10.4583 5.17511 11.1667 5.17511 12C5.17511 12.8333 5.46677 13.5417 6.05011 14.125C6.63344 14.7083 7.34177 15 8.17511 15ZM7.42511 18H8.92511L9.12511 16.2C9.60844 16.0667 10.0209 15.8958 10.3626 15.6875C10.7043 15.4792 11.0418 15.2 11.3751 14.85L13.0251 15.6L13.7251 14.35L12.2751 13.25C12.4084 12.8667 12.4751 12.45 12.4751 12C12.4751 11.55 12.4084 11.1333 12.2751 10.75L13.7251 9.65L13.0251 8.4L11.3751 9.15C11.0418 8.8 10.7043 8.52083 10.3626 8.3125C10.0209 8.10417 9.60844 7.93333 9.12511 7.8L8.92511 6H7.42511L7.22511 7.8C6.74177 7.93333 6.32927 8.10417 5.98761 8.3125C5.64594 8.52083 5.30844 8.8 4.97511 9.15L3.32511 8.4L2.62511 9.65L4.07511 10.75C3.94177 11.1333 3.87094 11.55 3.86261 12C3.85427 12.45 3.92511 12.8667 4.07511 13.25L2.62511 14.35L3.32511 15.6L4.97511 14.85C5.30844 15.2 5.64594 15.4792 5.98761 15.6875C6.32927 15.8958 6.74177 16.0667 7.22511 16.2L7.42511 18Z" fill="#94A3B8"/>
</svg>
